<?xml version="1.0" encoding="UTF-8" standalone="no"?>
<!-- Created with Inkscape (http://www.inkscape.org/) -->

<svg
   width="512"
   height="512"
   viewBox="0 0 512 512"
   version="1.1"
   id="svg1"
   inkscape:version="1.4.3 (0d15f75, 2025-12-25)"
   sodipodi:docname="uranus.svg"
   xmlns:inkscape="http://www.inkscape.org/namespaces/inkscape"
   xmlns:sodipodi="http://sodipodi.sourceforge.net/DTD/sodipodi-0.dtd"
   xmlns="http://www.w3.org/2000/svg"
   xmlns:svg="http://www.w3.org/2000/svg">
  <sodipodi:namedview
     id="namedview1"
     pagecolor="#ffffff"
     bordercolor="#000000"
     borderopacity="0.25"
     inkscape:showpageshadow="2"
     inkscape:pageopacity="0.0"
     inkscape:pagecheckerboard="0"
     inkscape:deskcolor="#d1d1d1"
     inkscape:document-units="px"
     inkscape:zoom="1.7407349"
     inkscape:cx="299.87335"
     inkscape:cy="267.99026"
     inkscape:window-width="1536"
     inkscape:window-height="902"
     inkscape:window-x="0"
     inkscape:window-y="0"
     inkscape:window-maximized="1"
     inkscape:current-layer="layer1"
     showguides="false" />
  <defs
     id="defs1">
    <radialGradient
       id="earthGrad"
       cx="62.079999"
       cy="62.079999"
       r="142.19999"
       fx="62.079999"
       fy="62.079999"
       gradientUnits="userSpaceOnUse"
       gradientTransform="translate(156.00002,156)">
      <stop
         offset="0%"
         stop-color="#4a90d9"
         id="stop1" />
      <stop
         offset="50%"
         stop-color="#2e6bb5"
         id="stop2" />
      <stop
         offset="100%"
         stop-color="#1a4a8a"
         id="stop3" />
    </radialGradient>
    <filter
       id="glow"
       x="-0.026666667"
       y="-0.026666667"
       width="1.0533333"
       height="1.0533333">
      <feGaussianBlur
         stdDeviation="2"
         result="coloredBlur"
         id="feGaussianBlur3" />
      <feMerge
         id="feMerge4">
        <feMergeNode
           in="coloredBlur"
           id="feMergeNode3" />
        <feMergeNode
           in="SourceGraphic"
           id="feMergeNode4" />
      </feMerge>
    </filter>
    <radialGradient
       id="uranusGrad"
       cx="81.039997"
       cy="62.079999"
       r="142.19999"
       fx="81.039997"
       fy="62.079999"
       gradientUnits="userSpaceOnUse"
       gradientTransform="translate(156.00001,156.00002)">
      <stop
         offset="0%"
         stop-color="#a8e8f0"
         id="stop1-7" />
      <stop
         offset="50%"
         stop-color="#7fdbff"
         id="stop2-5" />
      <stop
         offset="100%"
         stop-color="#4ac0d9"
         id="stop3-3" />
    </radialGradient>
    <filter
       id="glow-5"
       x="-0.026666667"
       y="-0.026666667"
       width="1.0533333"
       height="1.0533333">
      <feGaussianBlur
         stdDeviation="2"
         result="coloredBlur"
         id="feGaussianBlur3-6" />
      <feMerge
         id="feMerge4-2">
        <feMergeNode
           in="coloredBlur"
           id="feMergeNode3-9" />
        <feMergeNode
           in="SourceGraphic"
           id="feMergeNode4-1" />
      </feMerge>
    </filter>
  </defs>
  <g
     inkscape:label="Layer 1"
     inkscape:groupmode="layer"
     id="layer1">
    <circle
       cx="256"
       cy="256"
       r="90"
       fill="url(#uranusGrad)"
       filter="url(#glow)"
       id="circle4-7"
       style="fill:url(#uranusGrad);filter:url(#glow-5)" />
    <path
       id="path1"
       style="opacity:0.394661;fill:#666666;fill-opacity:0.773791;stroke-width:3.98093;stroke:#808080"
       d="M 289.46151 291.92992 A 130.11746 25.27668 0 0 0 186.23359 282.04105 A 130.11746 25.27668 0 0 0 56.114697 307.31811 A 130.11746 25.27668 0 0 0 186.23252 332.59535 A 130.11746 25.27668 0 0 0 316.34952 307.3178 A 130.11746 25.27668 0 0 0 289.46151 291.92992 z M 274.59824 295.15066 A 111.51084 21.080666 0.46466234 0 1 297.73959 308.15854 A 111.51084 21.080666 0.46466234 0 1 186.39558 328.40142 A 111.51084 21.080666 0.46466234 0 1 74.724625 306.47736 A 111.51084 21.080666 0.46466234 0 1 186.06864 286.23448 A 111.51084 21.080666 0.46466234 0 1 274.59824 295.15066 z "
       transform="rotate(-14.723599)" />
    <path
       id="path2"
       style="opacity:0.394661;fill:#666666;fill-opacity:0.773791;stroke:#808080;stroke-width:3.63166"
       d="m 344.22659,211.72477 a 23.409192,116.92615 74.737883 0 0 -91.76123,15.47613 23.409192,116.92615 74.737883 0 0 -107.06528,53.39226 23.409192,116.92615 74.737883 0 0 118.58359,-8.00459 23.409192,116.92615 74.737883 0 0 107.06353,-53.39225 23.409192,116.92615 74.737883 0 0 -26.82061,-7.47155 z m -12.15393,6.39822 a 19.525952,100.19168 75.220187 0 1 23.02961,6.21874 19.525952,100.19168 75.220187 0 1 -91.93283,44.44308 19.525952,100.19168 75.220187 0 1 -101.82443,6.66293 19.525952,100.19168 75.220187 0 1 91.93284,-44.44309 19.525952,100.19168 75.220187 0 1 78.79481,-12.88166 z" />
  </g>
</svg>
