<?xml version="1.0" encoding="UTF-8" standalone="no"?>
<!-- Created with Inkscape (http://www.inkscape.org/) -->

<svg
   width="512"
   height="512"
   viewBox="0 0 512 512"
   version="1.1"
   id="svg1"
   inkscape:version="1.4.3 (0d15f75, 2025-12-25)"
   sodipodi:docname="venus.svg"
   xmlns:inkscape="http://www.inkscape.org/namespaces/inkscape"
   xmlns:sodipodi="http://sodipodi.sourceforge.net/DTD/sodipodi-0.dtd"
   xmlns="http://www.w3.org/2000/svg"
   xmlns:svg="http://www.w3.org/2000/svg">
  <sodipodi:namedview
     id="namedview1"
     pagecolor="#ffffff"
     bordercolor="#000000"
     borderopacity="0.25"
     inkscape:showpageshadow="2"
     inkscape:pageopacity="0.0"
     inkscape:pagecheckerboard="0"
     inkscape:deskcolor="#d1d1d1"
     inkscape:document-units="px"
     inkscape:zoom="1.7407349"
     inkscape:cx="276.89455"
     inkscape:cy="254.77745"
     inkscape:window-width="1536"
     inkscape:window-height="902"
     inkscape:window-x="0"
     inkscape:window-y="0"
     inkscape:window-maximized="1"
     inkscape:current-layer="layer1"
     showguides="false" />
  <defs
     id="defs1">
    <radialGradient
       id="earthGrad"
       cx="62.079999"
       cy="62.079999"
       r="142.19999"
       fx="62.079999"
       fy="62.079999"
       gradientUnits="userSpaceOnUse"
       gradientTransform="translate(156.00002,156)">
      <stop
         offset="0%"
         stop-color="#4a90d9"
         id="stop1" />
      <stop
         offset="50%"
         stop-color="#2e6bb5"
         id="stop2" />
      <stop
         offset="100%"
         stop-color="#1a4a8a"
         id="stop3" />
    </radialGradient>
    <filter
       id="glow"
       x="-0.026666667"
       y="-0.026666667"
       width="1.0533333"
       height="1.0533333">
      <feGaussianBlur
         stdDeviation="2"
         result="coloredBlur"
         id="feGaussianBlur3" />
      <feMerge
         id="feMerge4">
        <feMergeNode
           in="coloredBlur"
           id="feMergeNode3" />
        <feMergeNode
           in="SourceGraphic"
           id="feMergeNode4" />
      </feMerge>
    </filter>
    <radialGradient
       id="venusGrad"
       cx="62.079999"
       cy="62.079999"
       r="132.71999"
       fx="62.079999"
       fy="62.079999"
       gradientUnits="userSpaceOnUse"
       gradientTransform="translate(156.00002,156.00002)">
      <stop
         offset="0%"
         stop-color="#ffe4b5"
         id="stop1-7" />
      <stop
         offset="50%"
         stop-color="#ffd700"
         id="stop2-5" />
      <stop
         offset="100%"
         stop-color="#daa520"
         id="stop3-3" />
    </radialGradient>
    <filter
       id="glow-5"
       x="-0.026666667"
       y="-0.026666667"
       width="1.0533333"
       height="1.0533333">
      <feGaussianBlur
         stdDeviation="2"
         result="coloredBlur"
         id="feGaussianBlur3-6" />
      <feMerge
         id="feMerge4-2">
        <feMergeNode
           in="coloredBlur"
           id="feMergeNode3-9" />
        <feMergeNode
           in="SourceGraphic"
           id="feMergeNode4-1" />
      </feMerge>
    </filter>
  </defs>
  <g
     inkscape:label="Layer 1"
     inkscape:groupmode="layer"
     id="layer1">
    <circle
       cx="256"
       cy="256"
       r="90"
       fill="url(#venusGrad)"
       filter="url(#glow)"
       id="circle4-7"
       style="fill:url(#venusGrad);filter:url(#glow-5)" />
    <path
       style="opacity:0.292;fill:#808080;fill-opacity:0.773791;stroke:#808080;stroke-width:3.0140906"
       d="m 297.001,286.66054 c -60.31935,13.21281 -71.23429,-15.51069 -58.02147,17.2341 13.21281,32.74479 64.91511,-4.59576 65.48958,-11.4894 0.57447,-6.89364 -7.46811,-5.7447 -7.46811,-5.7447 z"
       id="path1" />
    <path
       style="opacity:0.214;fill:#808080;fill-opacity:0.773791;stroke:#808080;stroke-width:3.98093"
       d="m 208.53261,242.0646 c 11.77534,-18.23279 -11.19849,-25.46243 -2.83182,-32.30901 6.94148,-5.68032 7.71094,1.57356 25.81063,7.60679 53.42571,17.80857 40.2129,-19.53198 40.2129,-19.53198 0,0 13.78728,-35.04267 17.2341,9.76599 4.94065,64.22851 -91.22324,51.18681 -80.42581,34.46821 z"
       id="path2"
       sodipodi:nodetypes="ssscss" />
    <path
       id="path3"
       style="opacity:0.394661;fill:#808080;fill-opacity:0.773791;stroke:#808080;stroke-width:0.10221895"
       d="M 313.10547 253.59766 C 308.59202 253.45299 309.94164 256.51053 315.38477 270 C 320.3757 282.36885 330.85744 284.73826 342.00195 282.52539 A 90 90 0 0 0 346 256.41016 C 327.99565 257.09 317.61892 253.74233 313.10547 253.59766 z " />
    <path
       id="path4"
       style="opacity:0.394661;fill:#808080;fill-opacity:0.773791;stroke:none;stroke-width:3.01409"
       d="M 206.9082 298.65234 C 206.16319 298.65234 205.66016 298.72461 205.66016 298.72461 C 195.31154 300.99145 186.41752 302.02345 178.84961 302.34375 A 90 90 0 0 0 193.65625 320.91016 C 204.50046 314.84581 212.89928 307.22428 213.12891 304.46875 C 213.55976 299.29852 209.14325 298.65234 206.9082 298.65234 z " />
  </g>
</svg>
